# Blender 5.0.0
# www.blender.org
o Plane.016
v -104.397858 -11.568958 32.960026
v -103.531479 -8.068642 32.006721
v -102.172134 -3.905919 33.129318
v -102.541107 -3.918225 30.550308
v -97.294014 -4.908610 26.668800
v -104.138466 -11.880454 34.910282
v -103.116066 -3.775177 32.618881
v -100.401161 -2.896014 28.682880
v -99.545708 -3.096184 30.044382
v -100.149673 -2.966986 29.580536
v -103.272087 -8.380136 33.956982
v -103.531479 -8.068642 32.006721
v -103.985924 -8.341889 33.649040
v -104.852303 -11.842207 34.602345
v -106.144035 -11.568958 34.149803
v -106.645912 -8.068642 35.336193
v -108.300270 -3.905919 34.726997
v -107.098206 -3.918225 37.038376
v -110.764168 -4.908610 42.438259
v -107.034531 -11.880454 32.395435
v -107.240578 -3.775177 34.896107
v -108.499146 -2.896014 39.509003
v -109.757141 -3.096184 38.507538
v -109.033661 -2.966986 38.745247
v -107.536407 -8.380136 33.581825
v -106.645912 -8.068642 35.336193
v -106.760872 -8.341889 33.636044
v -106.259003 -11.842207 32.449654
v -104.137566 -9.832788 35.521938
v -104.613281 -5.949695 35.479218
v -106.302437 -1.357721 37.120693
v -104.003036 -0.714269 35.125427
v -95.566391 0.650623 36.627663
v -105.691353 -10.508522 36.951221
v -106.176186 -0.015634 35.990372
v -100.093987 2.431324 35.270676
v -100.472260 2.130789 36.944332
v -100.577515 2.257576 36.111904
v -106.167068 -6.625429 36.908504
v -104.613281 -5.949695 35.479218
v -106.412628 -6.648924 36.081940
v -105.936913 -10.532017 36.124660
v -104.946609 -9.010485 34.068230
v -104.540344 -8.657936 34.068962
v -104.864441 1.607649 35.997379
v -102.498734 1.175400 32.925537
v -90.167572 0.270093 34.604092
v -105.861038 -10.239136 36.627758
v -105.140419 2.144442 34.495346
v -95.505173 3.504458 33.668671
v -96.180267 2.813095 35.894314
v -96.260719 3.199479 34.807106
v -107.855576 -5.058389 36.015045
v -106.941147 -3.829739 33.455517
v -108.275291 -5.423770 34.990925
v -106.280762 -10.604517 35.603638
v -105.836845 -9.832788 31.000946
v -105.402107 -5.949695 31.198763
v -103.264732 -1.357722 30.209154
v -106.095070 -0.714269 31.330549
v -113.558464 0.650623 27.119671
v -103.897461 -10.508522 30.166739
v -103.758110 -0.015635 31.233917
v -109.735542 2.431323 29.899204
v -108.824463 2.130789 28.445196
v -109.000755 2.257576 29.265520
v -103.462723 -6.625429 30.364555
v -105.402107 -5.949695 31.198763
v -103.504692 -6.648924 31.225801
v -103.939423 -10.532018 31.027985
v -105.554756 -9.010485 32.640530
v -105.937859 -8.657936 32.505325
v -104.993546 1.607649 30.792984
v -108.242905 1.175400 32.908276
v -119.322769 0.270093 27.241552
v -103.844444 -10.239136 30.528135
v -105.230461 2.144442 32.301674
v -114.595955 3.504458 29.891491
v -113.222023 2.813095 28.014906
v -113.506081 3.199479 29.067430
v -102.165283 -5.058389 31.766678
v -103.875587 -3.829739 33.879070
v -102.108322 -5.423770 32.872005
v -103.787483 -10.604517 31.633461
vn 0.9568 -0.1444 0.2523
vn 0.9567 -0.1571 0.2450
vn 0.9563 -0.1725 0.2359
vn 0.2259 -0.9709 -0.0792
vn 0.1191 -0.9790 -0.1652
vn 0.3915 -0.9179 0.0650
vn -0.0010 -0.9666 -0.2563
vn 0.3815 -0.2986 -0.8748
vn 0.3834 -0.2961 -0.8748
vn 0.3595 -0.3270 -0.8740
vn -0.4481 -0.8816 0.1484
vn -0.3720 -0.8982 0.2342
vn -0.4356 -0.8852 0.1631
vn -0.5077 -0.8583 0.0744
vn 0.4044 -0.2678 -0.8745
vn 0.9566 -0.1297 0.2608
vn -0.9864 -0.1444 0.0787
vn -0.9839 -0.1571 0.0856
vn -0.9805 -0.1725 0.0940
vn -0.1869 -0.9709 0.1495
vn -0.0577 -0.9790 0.1953
vn -0.3909 -0.9179 0.0683
vn 0.0858 -0.9666 0.2415
vn -0.0703 -0.2986 0.9518
vn -0.0721 -0.2961 0.9524
vn -0.0498 -0.3270 0.9437
vn 0.3736 -0.8816 -0.2884
vn 0.2735 -0.8982 -0.3441
vn 0.3571 -0.8852 -0.2981
vn 0.4545 -0.8583 -0.2383
vn -0.0920 -0.2678 0.9591
vn -0.9890 -0.1297 0.0706
vn 0.3287 0.0250 0.9441
vn 0.3189 0.0328 0.9472
vn 0.3007 0.0473 0.9525
vn 0.3335 -0.6201 0.7101
vn 0.3728 -0.7448 -0.5534
vn 0.9826 0.0534 -0.1777
vn 0.9830 0.0525 -0.1761
vn 0.9515 0.1134 -0.2859
vn -0.2755 -0.9332 -0.2309
vn -0.2935 -0.9499 -0.1076
vn -0.2774 -0.9354 -0.2194
vn -0.2564 -0.9068 -0.3346
vn 0.9978 -0.0078 -0.0661
vn 0.3465 0.0105 0.9380
vn 0.5423 0.3015 0.7842
vn 0.1621 -0.8920 0.4221
vn 0.1237 -0.9292 -0.3483
vn 0.8513 0.2749 -0.4470
vn -0.4104 -0.8269 -0.3845
vn -0.4240 -0.8628 -0.2753
vn -0.4130 -0.8337 -0.3664
vn -0.3945 -0.7879 -0.4729
vn 0.8811 -0.3889 -0.2690
vn 0.6148 -0.3114 0.7245
vn 0.0025 0.0250 -0.9997
vn 0.0127 0.0328 -0.9994
vn 0.0317 0.0473 -0.9984
vn -0.0796 -0.6201 -0.7805
vn -0.5350 -0.7448 0.3988
vn -0.9860 0.0534 -0.1577
vn -0.9858 0.0525 -0.1593
vn -0.9925 0.1134 -0.0453
vn 0.1835 -0.9332 0.3091
vn 0.2414 -0.9499 0.1987
vn 0.1891 -0.9354 0.2988
vn 0.1311 -0.9068 0.4006
vn -0.9634 -0.0078 -0.2680
vn -0.0164 0.0105 -0.9998
vn -0.2520 0.3015 -0.9195
vn -0.0132 -0.8920 -0.4519
vn -0.2321 -0.9292 0.2877
vn -0.9513 0.2749 0.1399
vn 0.2599 -0.8269 0.4987
vn 0.3089 -0.8628 0.4001
vn 0.2684 -0.8337 0.4825
vn 0.2157 -0.7879 0.5769
vn -0.9205 -0.3889 -0.0379
vn -0.3403 -0.3114 -0.8873
vt 1.000000 1.000000
vt 0.750000 0.500000
vt 0.250000 0.500000
vt 0.500000 0.500000
vt 0.715279 1.000000
vt 0.250000 1.000000
vt 0.250000 0.000000
vt 0.500000 0.000000
vt 0.750000 0.000000
vt 0.000000 0.500000
s 1
f 12/1/1 13/2/2 14/2/3 1/1/3
f 10/3/4 7/4/5 4/5/6 8/6/6
f 9/7/7 3/8/7 7/4/5 10/3/4
f 13/2/8 11/9/9 6/9/10 14/2/10
f 5/10/11 9/7/12 10/3/13
f 5/10/11 10/3/13 8/6/14
f 3/8/15 11/9/9 13/2/8 7/4/15
f 7/4/16 13/2/2 12/1/1 4/5/16
f 26/1/17 27/2/18 28/2/19 15/1/19
f 24/3/20 21/4/21 18/5/22 22/6/22
f 23/7/23 17/8/23 21/4/21 24/3/20
f 27/2/24 25/9/25 20/9/26 28/2/26
f 19/10/27 23/7/28 24/3/29
f 19/10/27 24/3/29 22/6/30
f 17/8/31 25/9/25 27/2/24 21/4/31
f 21/4/32 27/2/18 26/1/17 18/5/32
f 40/1/33 41/2/34 42/2/35 29/1/35
f 38/3/36 35/4/36 32/5/36 36/6/36
f 37/7/37 31/8/37 35/4/37 38/3/37
f 41/2/38 39/9/39 34/9/40 42/2/40
f 33/10/41 37/7/42 38/3/43
f 33/10/41 38/3/43 36/6/44
f 31/8/45 39/9/39 41/2/38 35/4/45
f 35/4/46 41/2/34 40/1/33 32/5/46
f 54/1/47 55/2/47 56/2/47 43/1/47
f 52/3/48 49/4/48 46/5/48 50/6/48
f 51/7/49 45/8/49 49/4/49 52/3/49
f 55/2/50 53/9/50 48/9/50 56/2/50
f 47/10/51 51/7/52 52/3/53
f 47/10/51 52/3/53 50/6/54
f 45/8/55 53/9/55 55/2/55 49/4/55
f 49/4/56 55/2/56 54/1/56 46/5/56
f 68/1/57 69/2/58 70/2/59 57/1/59
f 66/3/60 63/4/60 60/5/60 64/6/60
f 65/7/61 59/8/61 63/4/61 66/3/61
f 69/2/62 67/9/63 62/9/64 70/2/64
f 61/10/65 65/7/66 66/3/67
f 61/10/65 66/3/67 64/6/68
f 59/8/69 67/9/63 69/2/62 63/4/69
f 63/4/70 69/2/58 68/1/57 60/5/70
f 82/1/71 83/2/71 84/2/71 71/1/71
f 80/3/72 77/4/72 74/5/72 78/6/72
f 79/7/73 73/8/73 77/4/73 80/3/73
f 83/2/74 81/9/74 76/9/74 84/2/74
f 75/10/75 79/7/76 80/3/77
f 75/10/75 80/3/77 78/6/78
f 73/8/79 81/9/79 83/2/79 77/4/79
f 77/4/80 83/2/80 82/1/80 74/5/80
l 2 12
l 16 26
l 30 40
l 44 54
l 58 68
l 72 82
