# Blender 5.0.0
# www.blender.org
o Plane.003
v -62.757332 -11.568958 34.149803
v -63.259201 -8.068641 35.336197
v -65.155762 -3.734180 35.470871
v -63.907082 -3.113433 37.671566
v -67.545479 1.862453 43.278580
v -63.647827 -11.880453 32.395439
v -64.084404 -3.672206 35.601212
v -65.168503 1.132517 39.875843
v -66.517632 0.624449 39.136066
v -65.766174 0.719811 39.287174
v -64.149696 -8.380136 33.581829
v -63.259201 -8.068641 35.336197
v -63.374165 -8.341888 33.636047
v -62.872295 -11.842207 32.449657
v -65.072746 -10.737404 35.514717
v -64.294708 -7.023543 34.561668
v -62.455696 -3.099184 31.886936
v -63.894287 -1.484302 33.440647
v -68.561691 5.188045 30.487978
v -63.752926 -11.844816 34.327698
v -62.045437 -2.892035 32.868492
v -64.116547 3.285315 31.899317
v -64.279175 2.381709 30.612286
v -64.023232 2.600450 31.304348
v -62.974884 -8.130956 33.374653
v -64.294708 -7.023543 34.561668
v -62.637604 -8.004063 34.076195
v -63.415642 -11.717924 35.029243
v -60.750862 -9.832791 35.521942
v -61.226574 -5.949697 35.479225
v -62.915730 -1.357724 37.120697
v -61.150631 -0.290981 35.174515
v -56.126766 6.518286 37.095818
v -62.304649 -10.508526 36.951229
v -63.195034 -1.366785 35.963085
v -60.584930 4.678915 35.594845
v -60.658333 4.109346 37.239452
v -60.814457 4.170599 36.407612
v -62.780361 -6.625432 36.908508
v -61.226574 -5.949697 35.479225
v -63.025921 -6.648927 36.081947
v -62.550209 -10.532022 36.124664
v -62.308853 -10.145975 34.775379
v -61.639977 -6.645658 33.674473
v -59.743969 -2.311199 33.816708
v -60.659744 -1.690452 31.457977
v -56.245491 3.285433 26.438923
v -61.682632 -10.457472 36.640491
v -60.785034 -2.249225 33.532131
v -59.091522 2.555498 29.460304
v -57.864155 2.047430 30.388206
v -58.585697 2.142792 30.129547
v -61.013752 -6.957154 35.539581
v -61.639977 -6.645658 33.674473
v -61.773186 -6.918907 35.373287
v -62.442062 -10.419224 36.474197
v -59.630947 -12.654202 36.333382
v -61.439812 -7.092978 35.984055
v -66.271812 -1.216549 35.457970
v -63.202095 1.201613 36.251850
v -63.782055 11.192944 44.501675
v -62.132874 -14.312466 35.435802
v -65.268860 -0.906360 34.220299
v -65.076546 8.343750 37.638992
v -66.658051 6.990670 38.766991
v -65.927246 7.318218 37.938290
v -63.941734 -8.751245 35.086475
v -61.439812 -7.092978 35.984055
v -63.256176 -8.561232 34.143791
v -61.447311 -14.122454 34.493118
v -63.074135 -13.899393 34.249397
v -61.153645 -8.657935 34.068966
v -59.629829 -2.167412 36.473957
v -57.614601 -1.237891 33.265457
v -47.639156 6.213118 34.082561
v -64.755142 -14.365835 36.668823
v -60.218472 -2.074610 34.968864
v -53.812885 5.120097 33.363941
v -53.830612 4.359303 35.667877
v -54.164795 4.502100 34.569820
v -62.834648 -9.124376 36.488388
v -61.153645 -8.657935 34.068966
v -63.313663 -9.067104 35.427372
v -65.234154 -14.308563 35.607807
v -62.689259 -11.299616 30.629896
v -62.407906 -5.484980 31.287439
v -59.044617 1.391150 32.349392
v -62.863567 2.988517 31.403606
v -63.896481 13.184874 23.415890
v -59.701828 -12.311476 31.663986
v -60.372650 1.377582 33.539368
v -62.710918 10.430555 30.359371
v -60.490425 9.577671 29.288744
v -61.476376 9.669392 30.085064
v -59.420475 -6.496839 32.321529
v -62.407906 -5.484980 31.287439
v -60.335979 -6.532022 33.232021
v -60.617332 -12.346659 32.574478
v -62.567665 -11.768587 33.214031
v -64.493996 -6.527128 33.113590
v -65.652313 -0.036604 30.512764
v -68.112221 0.892916 33.394516
v -77.863174 8.343925 31.137093
v -60.553059 -12.235027 31.064442
v -65.288536 0.056196 32.087395
v -71.859306 7.250904 32.744858
v -71.507111 6.490109 30.467930
v -71.335976 6.632905 31.602882
v -62.479385 -6.993569 30.964001
v -64.493996 -6.527128 33.113590
v -62.159569 -6.936296 32.083344
v -60.233242 -12.177755 32.183784
vn -0.9805 -0.1725 0.0940
vn -0.7406 -0.5321 0.4103
vn -0.0599 -0.6542 0.7539
vn -0.0498 -0.3270 0.9437
vn 0.0606 -0.9521 0.2996
vn 0.2538 -0.8941 0.3691
vn -0.0704 -0.3924 0.9171
vn -0.9747 -0.1900 0.1175
vn -0.3633 -0.1595 -0.9179
vn -0.7246 -0.3372 -0.6011
vn -0.8908 -0.2034 0.4064
vn -0.8838 0.2811 0.3740
vn -0.5049 -0.7517 0.4243
vn -0.4654 -0.6157 0.6358
vn -0.9099 0.1967 0.3651
vn -0.3849 -0.1628 -0.9085
vn 0.3007 0.0473 0.9525
vn 0.6665 -0.2448 0.7042
vn 0.9051 -0.3708 -0.2078
vn 0.9515 0.1134 -0.2859
vn 0.4603 -0.8749 -0.1508
vn 0.4586 -0.8059 -0.3745
vn 0.9662 0.0302 -0.2561
vn 0.3240 0.0394 0.9452
vn 0.9838 -0.1725 0.0494
vn 0.7924 -0.5321 -0.2983
vn 0.1688 -0.6542 -0.7372
vn 0.1864 -0.3270 -0.9265
vn -0.0164 -0.9521 -0.3052
vn -0.1975 -0.8941 -0.4021
vn 0.2028 -0.3924 -0.8972
vn 0.9815 -0.1900 0.0253
vn -0.6360 -0.1595 0.7550
vn -0.1858 -0.3372 0.9229
vn 0.7801 -0.2034 0.5917
vn 0.7483 0.2811 0.6009
vn 0.6129 -0.7517 0.2434
vn 0.7804 -0.6158 0.1084
vn 0.7528 0.1967 0.6281
vn -0.6175 -0.1628 0.7696
vn 0.5476 -0.1725 0.8188
vn 0.7123 -0.5321 0.4576
vn 0.6923 -0.6542 -0.3046
vn 0.8546 -0.3270 -0.4035
vn 0.2351 -0.9521 -0.1954
vn 0.2047 -0.8941 -0.3985
vn 0.8409 -0.3924 -0.3728
vn 0.5655 -0.1900 0.8026
vn 0.6962 0.0473 -0.7163
vn 0.3041 -0.2448 -0.9206
vn -0.6121 -0.3708 -0.6985
vn -0.7028 0.1134 -0.7023
vn -0.3510 -0.8749 -0.3338
vn -0.5471 -0.8059 -0.2263
vn -0.6835 0.0302 -0.7293
vn 0.6787 0.0394 -0.7333
vn -0.4228 -0.1725 -0.8896
vn -0.6383 -0.5321 -0.5563
vn -0.7292 -0.6542 0.2008
vn -0.9041 -0.3270 0.2751
vn -0.2609 -0.9521 0.1591
vn -0.2604 -0.8941 0.3645
vn -0.8861 -0.3924 0.2467
vn -0.4429 -0.1900 -0.8762
vt 1.000000 1.000000
vt 0.750000 0.500000
vt 0.250000 0.500000
vt 0.500000 0.500000
vt 0.715279 1.000000
vt 0.250000 1.000000
vt 0.250000 0.000000
vt 0.500000 0.000000
vt 0.750000 0.000000
vt 0.000000 0.500000
s 0
f 12/1/1 13/2/1 14/2/1 1/1/1
f 10/3/2 7/4/2 4/5/2 8/6/2
f 9/7/3 3/8/3 7/4/3 10/3/3
f 13/2/4 11/9/4 6/9/4 14/2/4
f 5/10/5 9/7/5 10/3/5
f 5/10/6 10/3/6 8/6/6
f 3/8/7 11/9/7 13/2/7 7/4/7
f 7/4/8 13/2/8 12/1/8 4/5/8
f 26/1/9 27/2/9 28/2/9 15/1/9
f 24/3/10 21/4/10 18/5/10 22/6/10
f 23/7/11 17/8/11 21/4/11 24/3/11
f 27/2/12 25/9/12 20/9/12 28/2/12
f 19/10/13 23/7/13 24/3/13
f 19/10/14 24/3/14 22/6/14
f 17/8/15 25/9/15 27/2/15 21/4/15
f 21/4/16 27/2/16 26/1/16 18/5/16
f 40/1/17 41/2/17 42/2/17 29/1/17
f 38/3/18 35/4/18 32/5/18 36/6/18
f 37/7/19 31/8/19 35/4/19 38/3/19
f 41/2/20 39/9/20 34/9/20 42/2/20
f 33/10/21 37/7/21 38/3/21
f 33/10/22 38/3/22 36/6/22
f 31/8/23 39/9/23 41/2/23 35/4/23
f 35/4/24 41/2/24 40/1/24 32/5/24
f 54/1/25 55/2/25 56/2/25 43/1/25
f 52/3/26 49/4/26 46/5/26 50/6/26
f 51/7/27 45/8/27 49/4/27 52/3/27
f 55/2/28 53/9/28 48/9/28 56/2/28
f 47/10/29 51/7/29 52/3/29
f 47/10/30 52/3/30 50/6/30
f 45/8/31 53/9/31 55/2/31 49/4/31
f 49/4/32 55/2/32 54/1/32 46/5/32
f 68/1/33 69/2/33 70/2/33 57/1/33
f 66/3/34 63/4/34 60/5/34 64/6/34
f 65/7/35 59/8/35 63/4/35 66/3/35
f 69/2/36 67/9/36 62/9/36 70/2/36
f 61/10/37 65/7/37 66/3/37
f 61/10/38 66/3/38 64/6/38
f 59/8/39 67/9/39 69/2/39 63/4/39
f 63/4/40 69/2/40 68/1/40 60/5/40
f 82/1/41 83/2/41 84/2/41 71/1/41
f 80/3/42 77/4/42 74/5/42 78/6/42
f 79/7/43 73/8/43 77/4/43 80/3/43
f 83/2/44 81/9/44 76/9/44 84/2/44
f 75/10/45 79/7/45 80/3/45
f 75/10/46 80/3/46 78/6/46
f 73/8/47 81/9/47 83/2/47 77/4/47
f 77/4/48 83/2/48 82/1/48 74/5/48
f 96/1/49 97/2/49 98/2/49 85/1/49
f 94/3/50 91/4/50 88/5/50 92/6/50
f 93/7/51 87/8/51 91/4/51 94/3/51
f 97/2/52 95/9/52 90/9/52 98/2/52
f 89/10/53 93/7/53 94/3/53
f 89/10/54 94/3/54 92/6/54
f 87/8/55 95/9/55 97/2/55 91/4/55
f 91/4/56 97/2/56 96/1/56 88/5/56
f 110/1/57 111/2/57 112/2/57 99/1/57
f 108/3/58 105/4/58 102/5/58 106/6/58
f 107/7/59 101/8/59 105/4/59 108/3/59
f 111/2/60 109/9/60 104/9/60 112/2/60
f 103/10/61 107/7/61 108/3/61
f 103/10/62 108/3/62 106/6/62
f 101/8/63 109/9/63 111/2/63 105/4/63
f 105/4/64 111/2/64 110/1/64 102/5/64
l 2 12
l 16 26
l 30 40
l 44 54
l 58 68
l 72 82
l 86 96
l 100 110
