{
	"asset":{
		"generator":"Khronos glTF Blender I/O v5.0.21",
		"version":"2.0"
	},
	"extensionsUsed":[
		"KHR_materials_clearcoat",
		"KHR_materials_transmission",
		"KHR_materials_specular",
		"KHR_materials_ior",
		"KHR_texture_transform"
	],
	"extensionsRequired":[
		"KHR_texture_transform"
	],
	"scene":0,
	"scenes":[
		{
			"name":"Scene",
			"nodes":[
				0,
				1,
				2,
				3,
				4,
				5,
				6,
				7,
				8,
				9,
				10,
				11,
				12,
				13,
				14,
				15
			]
		}
	],
	"nodes":[
		{
			"mesh":0,
			"name":"Tree variation in autumn 04.002",
			"rotation":[
				-0.09875249862670898,
				-0.8947063088417053,
				-0.10576270520687103,
				0.4225669503211975
			],
			"scale":[
				3.6229970455169678,
				2.856623888015747,
				1.8175221681594849
			],
			"translation":[
				-41.28341293334961,
				1.381265640258789,
				-1.9609020948410034
			]
		},
		{
			"mesh":1,
			"name":"Tree variation in autumn 04.003",
			"rotation":[
				-0.12339566648006439,
				0.1385035365819931,
				0.3589365482330322,
				0.9147431254386902
			],
			"scale":[
				1.5046862363815308,
				1.1863995790481567,
				0.46542948484420776
			],
			"translation":[
				-38.7944450378418,
				-1.7380731105804443,
				8.807584762573242
			]
		},
		{
			"mesh":2,
			"name":"Plane.003",
			"translation":[
				-62.56261444091797,
				-34.12501525878906,
				-3.3458094596862793
			]
		},
		{
			"mesh":3,
			"name":"Tree variation in autumn 04.004",
			"rotation":[
				-0.09875249862670898,
				-0.8947063088417053,
				-0.10576270520687103,
				0.4225669503211975
			],
			"scale":[
				3.6229970455169678,
				2.856623888015747,
				1.8175221681594849
			],
			"translation":[
				-43.604713439941406,
				1.381265640258789,
				-1.9609020948410034
			]
		},
		{
			"mesh":4,
			"name":"Plane.016"
		},
		{
			"mesh":5,
			"name":"Plane.001",
			"translation":[
				-82.09902954101562,
				-66.26641845703125,
				-11.354063034057617
			]
		},
		{
			"mesh":6,
			"name":"Alex_the_Grey_Lady",
			"translation":[
				-35.86235046386719,
				0,
				0
			]
		},
		{
			"mesh":7,
			"name":"tmpm60vkgib.ply"
		},
		{
			"mesh":8,
			"name":"Eyeysyss",
			"scale":[
				0.2291356325149536,
				0.19311019778251648,
				0.22286856174468994
			],
			"translation":[
				-39.67692184448242,
				-2.0167503356933594,
				6.9123334884643555
			]
		},
		{
			"mesh":9,
			"name":"Inside_Mouth",
			"rotation":[
				0.01505320519208908,
				0.7382523417472839,
				0.6742398738861084,
				0.012554935179650784
			],
			"scale":[
				0.7011082768440247,
				0.7011082768440247,
				0.7011083364486694
			],
			"translation":[
				-38.617088317871094,
				-1.4643375873565674,
				5.8206400871276855
			]
		},
		{
			"mesh":10,
			"name":"Alex_the_Grey_Lady.001",
			"translation":[
				-35.86235046386719,
				0,
				0
			]
		},
		{
			"mesh":11,
			"name":"Dress 1st Layer.001",
			"rotation":[
				0.70710688829422,
				0,
				0,
				0.7071066498756409
			],
			"scale":[
				1.4321765899658203,
				2.289088249206543,
				1.4321768283843994
			],
			"translation":[
				-47.769622802734375,
				0.6846088171005249,
				-34.76924514770508
			]
		},
		{
			"mesh":12,
			"name":"Dress 1st Layer.002",
			"rotation":[
				0.70710688829422,
				0,
				0,
				0.7071066498756409
			],
			"scale":[
				2.3104193210601807,
				2.3212034702301025,
				2.9814562797546387
			],
			"translation":[
				-91.59130096435547,
				-4.415477752685547,
				-37.471092224121094
			]
		},
		{
			"mesh":13,
			"name":"Dress 1st Layer.003",
			"rotation":[
				0.70710688829422,
				0,
				0,
				0.7071066498756409
			],
			"scale":[
				1.8295050859451294,
				2.3212034702301025,
				2.2467308044433594
			],
			"translation":[
				-162.21131896972656,
				-4.415477752685547,
				-37.471092224121094
			]
		},
		{
			"mesh":14,
			"name":"Plane",
			"rotation":[
				0.14030081033706665,
				0.46871328353881836,
				-0.05302658677101135,
				0.8705238103866577
			],
			"scale":[
				35.19440460205078,
				35.19440460205078,
				29.97904396057129
			],
			"translation":[
				-36.756309509277344,
				-0.600429892539978,
				1.2559759616851807
			]
		},
		{
			"name":"Tree variation in autumn 04",
			"rotation":[
				0.06383064389228821,
				0.2535487115383148,
				0.0035012445878237486,
				0.9652079939842224
			],
			"scale":[
				3.863157272338867,
				5.505831718444824,
				2.2044522762298584
			],
			"translation":[
				-31.88719367980957,
				0.735837459564209,
				8.286995887756348
			]
		}
	],
	"materials":[
		{
			"doubleSided":true,
			"name":"LEAF",
			"normalTexture":{
				"index":0
			},
			"pbrMetallicRoughness":{
				"baseColorTexture":{
					"index":1
				},
				"metallicFactor":0,
				"roughnessFactor":0.30000001192092896
			}
		},
		{
			"doubleSided":true,
			"extensions":{
				"KHR_materials_specular":{
					"specularFactor":0.5
				},
				"KHR_materials_ior":{
					"ior":1.4500000476837158
				}
			},
			"name":"GREY_LDAY_TREE_BRANCH_BARK",
			"normalTexture":{
				"extensions":{
					"KHR_texture_transform":{
						"offset":[
							0,
							-5.499999523162842
						],
						"scale":[
							6.499999523162842,
							6.499999523162842
						]
					}
				},
				"index":2
			},
			"pbrMetallicRoughness":{
				"baseColorTexture":{
					"extensions":{
						"KHR_texture_transform":{
							"offset":[
								0,
								-5.499999523162842
							],
							"scale":[
								6.499999523162842,
								6.499999523162842
							]
						}
					},
					"index":3
				},
				"metallicFactor":0,
				"metallicRoughnessTexture":{
					"extensions":{
						"KHR_texture_transform":{
							"offset":[
								0,
								-5.499999523162842
							],
							"scale":[
								6.499999523162842,
								6.499999523162842
							]
						}
					},
					"index":4
				}
			}
		},
		{
			"doubleSided":true,
			"name":"Head",
			"pbrMetallicRoughness":{
				"metallicFactor":0,
				"roughnessFactor":0.10000000149011612
			}
		},
		{
			"doubleSided":true,
			"name":"Lower_body",
			"pbrMetallicRoughness":{
				"metallicFactor":0
			}
		},
		{
			"doubleSided":true,
			"name":"inside",
			"pbrMetallicRoughness":{
				"metallicFactor":0,
				"roughnessFactor":0.10000000149011612
			}
		},
		{
			"name":"Material_0",
			"pbrMetallicRoughness":{
				"baseColorTexture":{
					"index":5
				},
				"roughnessFactor":0.9036020040512085
			}
		},
		{
			"doubleSided":true,
			"extensions":{
				"KHR_materials_clearcoat":{
					"clearcoatFactor":0.1872909665107727
				},
				"KHR_materials_transmission":{
					"transmissionFactor":0.6020066738128662
				}
			},
			"name":"Material",
			"pbrMetallicRoughness":{
				"baseColorFactor":[
					0.6844693422317505,
					0.46594321727752686,
					0.18301917612552643,
					1
				],
				"metallicFactor":0,
				"roughnessFactor":0.5
			}
		},
		{
			"doubleSided":true,
			"name":"Injisde_Mouth",
			"pbrMetallicRoughness":{
				"baseColorFactor":[
					0,
					0,
					0,
					1
				]
			}
		},
		{
			"doubleSided":true,
			"name":"Head.002",
			"pbrMetallicRoughness":{
				"baseColorFactor":[
					0.800000011920929,
					0.800000011920929,
					0.800000011920929,
					1
				],
				"metallicFactor":0,
				"roughnessFactor":0.10000000149011612
			}
		},
		{
			"doubleSided":true,
			"name":"Lower_body.002",
			"pbrMetallicRoughness":{
				"baseColorFactor":[
					0.800000011920929,
					0.800000011920929,
					0.800000011920929,
					1
				],
				"metallicFactor":0,
				"roughnessFactor":0.5
			}
		},
		{
			"doubleSided":true,
			"name":"Body.002",
			"pbrMetallicRoughness":{
				"baseColorFactor":[
					0.800000011920929,
					0.800000011920929,
					0.800000011920929,
					1
				],
				"metallicFactor":0,
				"roughnessFactor":0.5
			}
		},
		{
			"doubleSided":true,
			"name":"inside.002",
			"pbrMetallicRoughness":{
				"baseColorFactor":[
					0.800000011920929,
					0.800000011920929,
					0.800000011920929,
					1
				],
				"metallicFactor":0,
				"roughnessFactor":0.10000000149011612
			}
		},
		{
			"doubleSided":true,
			"extensions":{
				"KHR_materials_specular":{
					"specularFactor":0
				}
			},
			"name":"Dress Layer 5.001",
			"pbrMetallicRoughness":{
				"baseColorFactor":[
					0.800000011920929,
					0.800000011920929,
					0.800000011920929,
					1
				],
				"metallicFactor":0,
				"roughnessFactor":0.5
			}
		},
		{
			"doubleSided":true,
			"extensions":{
				"KHR_materials_specular":{
					"specularFactor":0
				}
			},
			"name":"Dress Layer 5.002",
			"pbrMetallicRoughness":{
				"baseColorFactor":[
					0.800000011920929,
					0.800000011920929,
					0.800000011920929,
					1
				],
				"metallicFactor":0,
				"roughnessFactor":0.5
			}
		}
	],
	"meshes":[
		{
			"name":"Mesh.002",
			"primitives":[
				{
					"attributes":{
						"POSITION":0,
						"NORMAL":1,
						"TEXCOORD_0":2,
						"TEXCOORD_1":3,
						"COLOR_0":4,
						"COLOR_1":5
					},
					"indices":6,
					"material":0
				}
			]
		},
		{
			"name":"Mesh.003",
			"primitives":[
				{
					"attributes":{
						"POSITION":7,
						"NORMAL":8,
						"TEXCOORD_0":9,
						"TEXCOORD_1":10,
						"COLOR_0":11,
						"COLOR_1":12
					},
					"indices":13,
					"material":1
				},
				{
					"attributes":{
						"POSITION":14,
						"NORMAL":15,
						"TEXCOORD_0":16,
						"TEXCOORD_1":17,
						"COLOR_0":18,
						"COLOR_1":19
					},
					"indices":20,
					"material":0
				}
			]
		},
		{
			"name":"Plane.016",
			"primitives":[
				{
					"attributes":{
						"POSITION":21,
						"NORMAL":22,
						"TEXCOORD_0":23
					},
					"indices":24
				}
			]
		},
		{
			"name":"Mesh.004",
			"primitives":[
				{
					"attributes":{
						"POSITION":25,
						"NORMAL":26,
						"TEXCOORD_0":27,
						"TEXCOORD_1":28,
						"COLOR_0":29,
						"COLOR_1":30
					},
					"indices":6,
					"material":0
				}
			]
		},
		{
			"name":"Plane.034",
			"primitives":[
				{
					"attributes":{
						"POSITION":31,
						"NORMAL":32,
						"TEXCOORD_0":33
					},
					"indices":34
				}
			]
		},
		{
			"name":"Plane.037",
			"primitives":[
				{
					"attributes":{
						"POSITION":35,
						"NORMAL":36,
						"TEXCOORD_0":37
					},
					"indices":38
				}
			]
		},
		{
			"name":"Merged_scetc1.001_Retopo",
			"primitives":[
				{
					"attributes":{
						"POSITION":39,
						"NORMAL":40,
						"TEXCOORD_0":41,
						"TEXCOORD_1":42,
						"COLOR_0":43,
						"COLOR_1":44
					},
					"indices":45,
					"material":2
				},
				{
					"attributes":{
						"POSITION":46,
						"NORMAL":47,
						"TEXCOORD_0":48,
						"TEXCOORD_1":49,
						"COLOR_0":50,
						"COLOR_1":51
					},
					"indices":52,
					"material":3
				},
				{
					"attributes":{
						"POSITION":53,
						"NORMAL":54,
						"TEXCOORD_0":55,
						"TEXCOORD_1":56,
						"COLOR_0":57,
						"COLOR_1":58
					},
					"indices":59,
					"material":4
				},
				{
					"attributes":{
						"POSITION":60,
						"NORMAL":61,
						"TEXCOORD_0":62,
						"TEXCOORD_1":63,
						"COLOR_0":64,
						"COLOR_1":65
					},
					"indices":66,
					"material":4
				}
			]
		},
		{
			"name":"tmpm60vkgib.ply",
			"primitives":[
				{
					"attributes":{
						"POSITION":67,
						"NORMAL":68,
						"TEXCOORD_0":69
					},
					"indices":70,
					"material":5
				}
			]
		},
		{
			"name":"Icosphere.001",
			"primitives":[
				{
					"attributes":{
						"POSITION":71,
						"NORMAL":72,
						"TEXCOORD_0":73
					},
					"indices":74,
					"material":6
				}
			]
		},
		{
			"name":"Plane",
			"primitives":[
				{
					"attributes":{
						"POSITION":75,
						"NORMAL":76,
						"TEXCOORD_0":77
					},
					"indices":78,
					"material":7
				}
			]
		},
		{
			"extras":{
				"targetNames":[
					"Key 1",
					"Key 2"
				]
			},
			"name":"Merged_scetc1.001_Retopo.002",
			"primitives":[
				{
					"attributes":{
						"POSITION":79,
						"NORMAL":80,
						"TEXCOORD_0":81,
						"TEXCOORD_1":82,
						"COLOR_0":83,
						"COLOR_1":84
					},
					"indices":85,
					"material":8,
					"targets":[
						{
							"POSITION":86,
							"NORMAL":87
						},
						{
							"POSITION":88,
							"NORMAL":89
						}
					]
				},
				{
					"attributes":{
						"POSITION":90,
						"NORMAL":91,
						"TEXCOORD_0":92,
						"TEXCOORD_1":93,
						"COLOR_0":94,
						"COLOR_1":95
					},
					"indices":96,
					"material":9,
					"targets":[
						{
							"POSITION":97,
							"NORMAL":98
						},
						{
							"POSITION":99,
							"NORMAL":100
						}
					]
				},
				{
					"attributes":{
						"POSITION":101,
						"NORMAL":102,
						"TEXCOORD_0":103,
						"TEXCOORD_1":104,
						"COLOR_0":105,
						"COLOR_1":106
					},
					"indices":107,
					"material":10,
					"targets":[
						{
							"POSITION":108,
							"NORMAL":109
						},
						{
							"POSITION":110,
							"NORMAL":111
						}
					]
				},
				{
					"attributes":{
						"POSITION":112,
						"NORMAL":113,
						"TEXCOORD_0":114,
						"TEXCOORD_1":115,
						"COLOR_0":116,
						"COLOR_1":117
					},
					"indices":118,
					"material":11,
					"targets":[
						{
							"POSITION":119,
							"NORMAL":120
						},
						{
							"POSITION":121,
							"NORMAL":122
						}
					]
				}
			],
			"weights":[
				0,
				0.5
			]
		},
		{
			"name":"Dress 1st LayerDress 1st Layer.001",
			"primitives":[
				{
					"attributes":{
						"POSITION":123,
						"NORMAL":124,
						"TEXCOORD_0":125
					},
					"indices":126,
					"material":1
				},
				{
					"attributes":{
						"POSITION":127,
						"NORMAL":128,
						"TEXCOORD_0":129
					},
					"indices":130,
					"material":0
				}
			]
		},
		{
			"name":"Dress 1st LayerDress 1st Layer.002",
			"primitives":[
				{
					"attributes":{
						"POSITION":131,
						"NORMAL":132,
						"TEXCOORD_0":133
					},
					"indices":134,
					"material":12
				}
			]
		},
		{
			"name":"Dress 1st LayerDress 1st Layer.003",
			"primitives":[
				{
					"attributes":{
						"POSITION":135,
						"NORMAL":136,
						"TEXCOORD_0":137
					},
					"indices":138,
					"material":13
				}
			]
		},
		{
			"name":"Plane.002",
			"primitives":[
				{
					"attributes":{
						"POSITION":139,
						"NORMAL":140,
						"TEXCOORD_0":141,
						"TEXCOORD_1":142,
						"COLOR_0":143,
						"COLOR_1":144
					},
					"indices":145,
					"material":0
				},
				{
					"attributes":{
						"POSITION":146,
						"NORMAL":147,
						"TEXCOORD_0":148,
						"TEXCOORD_1":149,
						"COLOR_0":150,
						"COLOR_1":151
					},
					"indices":152,
					"material":1
				}
			]
		}
	],
	"textures":[
		{
			"sampler":0,
			"source":0
		},
		{
			"sampler":0,
			"source":0
		},
		{
			"sampler":0,
			"source":1
		},
		{
			"sampler":0,
			"source":2
		},
		{
			"sampler":0,
			"source":3
		},
		{
			"sampler":0,
			"source":4
		}
	],
	"images":[
		{
			"mimeType":"image/jpeg",
			"name":"IMG_20220508_170014 copy",
			"uri":"IMG_20220508_170014%20copy.jpg"
		},
		{
			"mimeType":"image/jpeg",
			"name":"bark-2_bump",
			"uri":"bark-2_bump.jpg"
		},
		{
			"mimeType":"image/jpeg",
			"name":"bark-2_diffuse",
			"uri":"bark-2_diffuse.jpg"
		},
		{
			"mimeType":"image/png",
			"name":"bark-2_smoothness",
			"uri":"bark-2_smoothness.png"
		},
		{
			"mimeType":"image/png",
			"name":"Image_0",
			"uri":"Image_0.png"
		}
	],
	"accessors":[
		{
			"bufferView":0,
			"componentType":5126,
			"count":41569,
			"max":[
				1.4119393825531006,
				1.6095070838928223,
				4.36314058303833
			],
			"min":[
				-1.5067522525787354,
				-1.5523295402526855,
				-5.196577072143555
			],
			"type":"VEC3"
		},
		{
			"bufferView":1,
			"componentType":5126,
			"count":41569,
			"type":"VEC3"
		},
		{
			"bufferView":2,
			"componentType":5126,
			"count":41569,
			"type":"VEC2"
		},
		{
			"bufferView":3,
			"componentType":5126,
			"count":41569,
			"type":"VEC2"
		},
		{
			"bufferView":4,
			"componentType":5121,
			"count":41569,
			"normalized":true,
			"type":"VEC4"
		},
		{
			"bufferView":5,
			"componentType":5123,
			"count":41569,
			"normalized":true,
			"type":"VEC4"
		},
		{
			"bufferView":6,
			"componentType":5123,
			"count":186702,
			"type":"SCALAR"
		},
		{
			"bufferView":7,
			"componentType":5126,
			"count":28267,
			"max":[
				1.2120332717895508,
				1.6930170059204102,
				3.5111708641052246
			],
			"min":[
				-1.7754955291748047,
				-2.90010666847229,
				-4.438821315765381
			],
			"type":"VEC3"
		},
		{
			"bufferView":8,
			"componentType":5126,
			"count":28267,
			"type":"VEC3"
		},
		{
			"bufferView":9,
			"componentType":5126,
			"count":28267,
			"type":"VEC2"
		},
		{
			"bufferView":10,
			"componentType":5126,
			"count":28267,
			"type":"VEC2"
		},
		{
			"bufferView":11,
			"componentType":5121,
			"count":28267,
			"normalized":true,
			"type":"VEC4"
		},
		{
			"bufferView":12,
			"componentType":5123,
			"count":28267,
			"normalized":true,
			"type":"VEC4"
		},
		{
			"bufferView":13,
			"componentType":5123,
			"count":97686,
			"type":"SCALAR"
		},
		{
			"bufferView":14,
			"componentType":5126,
			"count":5419,
			"max":[
				1.3200122117996216,
				1.5888588428497314,
				4.232372760772705
			],
			"min":[
				-1.3519501686096191,
				-0.17779046297073364,
				-3.0931944847106934
			],
			"type":"VEC3"
		},
		{
			"bufferView":15,
			"componentType":5126,
			"count":5419,
			"type":"VEC3"
		},
		{
			"bufferView":16,
			"componentType":5126,
			"count":5419,
			"type":"VEC2"
		},
		{
			"bufferView":17,
			"componentType":5126,
			"count":5419,
			"type":"VEC2"
		},
		{
			"bufferView":18,
			"componentType":5121,
			"count":5419,
			"normalized":true,
			"type":"VEC4"
		},
		{
			"bufferView":19,
			"componentType":5123,
			"count":5419,
			"normalized":true,
			"type":"VEC4"
		},
		{
			"bufferView":20,
			"componentType":5123,
			"count":9615,
			"type":"SCALAR"
		},
		{
			"bufferView":21,
			"componentType":5126,
			"count":240,
			"max":[
				14.923458099365234,
				10.709125518798828,
				16.530683517456055
			],
			"min":[
				-15.300559997558594,
				-10.376659393310547,
				-11.020025253295898
			],
			"type":"VEC3"
		},
		{
			"bufferView":22,
			"componentType":5126,
			"count":240,
			"type":"VEC3"
		},
		{
			"bufferView":23,
			"componentType":5126,
			"count":240,
			"type":"VEC2"
		},
		{
			"bufferView":24,
			"componentType":5123,
			"count":336,
			"type":"SCALAR"
		},
		{
			"bufferView":25,
			"componentType":5126,
			"count":41569,
			"max":[
				1.4119393825531006,
				1.6095070838928223,
				4.36314058303833
			],
			"min":[
				-1.5067522525787354,
				-1.5523295402526855,
				-5.196577072143555
			],
			"type":"VEC3"
		},
		{
			"bufferView":26,
			"componentType":5126,
			"count":41569,
			"type":"VEC3"
		},
		{
			"bufferView":27,
			"componentType":5126,
			"count":41569,
			"type":"VEC2"
		},
		{
			"bufferView":28,
			"componentType":5126,
			"count":41569,
			"type":"VEC2"
		},
		{
			"bufferView":29,
			"componentType":5121,
			"count":41569,
			"normalized":true,
			"type":"VEC4"
		},
		{
			"bufferView":30,
			"componentType":5123,
			"count":41569,
			"normalized":true,
			"type":"VEC4"
		},
		{
			"bufferView":31,
			"componentType":5126,
			"count":78,
			"max":[
				-90.16757202148438,
				-26.668800354003906,
				3.504457950592041
			],
			"min":[
				-119.32276916503906,
				-42.43825912475586,
				-11.880454063415527
			],
			"type":"VEC3"
		},
		{
			"bufferView":32,
			"componentType":5126,
			"count":78,
			"type":"VEC3"
		},
		{
			"bufferView":33,
			"componentType":5126,
			"count":78,
			"type":"VEC2"
		},
		{
			"bufferView":34,
			"componentType":5123,
			"count":252,
			"type":"SCALAR"
		},
		{
			"bufferView":35,
			"componentType":5126,
			"count":13,
			"max":[
				0.6584625244140625,
				3.7234878540039062,
				12.862144470214844
			],
			"min":[
				-9.635269165039062,
				-0.4873924255371094,
				-0.1011953353881836
			],
			"type":"VEC3"
		},
		{
			"bufferView":36,
			"componentType":5126,
			"count":13,
			"type":"VEC3"
		},
		{
			"bufferView":37,
			"componentType":5126,
			"count":13,
			"type":"VEC2"
		},
		{
			"bufferView":38,
			"componentType":5123,
			"count":42,
			"type":"SCALAR"
		},
		{
			"bufferView":39,
			"componentType":5126,
			"count":3624,
			"max":[
				-1.1879777908325195,
				1.3958241939544678,
				8.664679527282715
			],
			"min":[
				-4.828825950622559,
				-3.3197033405303955,
				2.9971072673797607
			],
			"type":"VEC3"
		},
		{
			"bufferView":40,
			"componentType":5126,
			"count":3624,
			"type":"VEC3"
		},
		{
			"bufferView":41,
			"componentType":5126,
			"count":3624,
			"type":"VEC2"
		},
		{
			"bufferView":42,
			"componentType":5126,
			"count":3624,
			"type":"VEC2"
		},
		{
			"bufferView":43,
			"componentType":5121,
			"count":3624,
			"normalized":true,
			"type":"VEC4"
		},
		{
			"bufferView":44,
			"componentType":5123,
			"count":3624,
			"normalized":true,
			"type":"VEC4"
		},
		{
			"bufferView":45,
			"componentType":5123,
			"count":13386,
			"type":"SCALAR"
		},
		{
			"bufferView":46,
			"componentType":5126,
			"count":3215,
			"max":[
				4.5241899490356445,
				2.815852165222168,
				-6.1929426193237305
			],
			"min":[
				-4.1021037101745605,
				-2.10453200340271,
				-29.046613693237305
			],
			"type":"VEC3"
		},
		{
			"bufferView":47,
			"componentType":5126,
			"count":3215,
			"type":"VEC3"
		},
		{
			"bufferView":48,
			"componentType":5126,
			"count":3215,
			"type":"VEC2"
		},
		{
			"bufferView":49,
			"componentType":5126,
			"count":3215,
			"type":"VEC2"
		},
		{
			"bufferView":50,
			"componentType":5121,
			"count":3215,
			"normalized":true,
			"type":"VEC4"
		},
		{
			"bufferView":51,
			"componentType":5123,
			"count":3215,
			"normalized":true,
			"type":"VEC4"
		},
		{
			"bufferView":52,
			"componentType":5123,
			"count":11904,
			"type":"SCALAR"
		},
		{
			"bufferView":53,
			"componentType":5126,
			"count":1215,
			"max":[
				4.243302822113037,
				2.548673629760742,
				4.374892711639404
			],
			"min":[
				-5.502389430999756,
				-2.9723477363586426,
				-10.156363487243652
			],
			"type":"VEC3"
		},
		{
			"bufferView":54,
			"componentType":5126,
			"count":1215,
			"type":"VEC3"
		},
		{
			"bufferView":55,
			"componentType":5126,
			"count":1215,
			"type":"VEC2"
		},
		{
			"bufferView":56,
			"componentType":5126,
			"count":1215,
			"type":"VEC2"
		},
		{
			"bufferView":57,
			"componentType":5121,
			"count":1215,
			"normalized":true,
			"type":"VEC4"
		},
		{
			"bufferView":58,
			"componentType":5123,
			"count":1215,
			"normalized":true,
			"type":"VEC4"
		},
		{
			"bufferView":59,
			"componentType":5123,
			"count":4722,
			"type":"SCALAR"
		},
		{
			"bufferView":60,
			"componentType":5126,
			"count":735,
			"max":[
				-2.1557769775390625,
				-0.17814360558986664,
				7.56268835067749
			],
			"min":[
				-4.156887054443359,
				-3.241586208343506,
				5.101618766784668
			],
			"type":"VEC3"
		},
		{
			"bufferView":61,
			"componentType":5126,
			"count":735,
			"type":"VEC3"
		},
		{
			"bufferView":62,
			"componentType":5126,
			"count":735,
			"type":"VEC2"
		},
		{
			"bufferView":63,
			"componentType":5126,
			"count":735,
			"type":"VEC2"
		},
		{
			"bufferView":64,
			"componentType":5121,
			"count":735,
			"normalized":true,
			"type":"VEC4"
		},
		{
			"bufferView":65,
			"componentType":5123,
			"count":735,
			"normalized":true,
			"type":"VEC4"
		},
		{
			"bufferView":66,
			"componentType":5123,
			"count":1956,
			"type":"SCALAR"
		},
		{
			"bufferView":67,
			"componentType":5126,
			"count":146683,
			"max":[
				0.9823269844055176,
				0.4916975498199463,
				1.0054727792739868
			],
			"min":[
				-0.9725907444953918,
				-0.7695509791374207,
				-0.9866482019424438
			],
			"type":"VEC3"
		},
		{
			"bufferView":68,
			"componentType":5126,
			"count":146683,
			"type":"VEC3"
		},
		{
			"bufferView":69,
			"componentType":5126,
			"count":146683,
			"type":"VEC2"
		},
		{
			"bufferView":70,
			"componentType":5125,
			"count":220056,
			"type":"SCALAR"
		},
		{
			"bufferView":71,
			"componentType":5126,
			"count":144,
			"max":[
				6.707961559295654,
				1.031961441040039,
				2.7892696857452393
			],
			"min":[
				-1.1579594612121582,
				-2.7054452896118164,
				-0.9386780261993408
			],
			"type":"VEC3"
		},
		{
			"bufferView":72,
			"componentType":5126,
			"count":144,
			"type":"VEC3"
		},
		{
			"bufferView":73,
			"componentType":5126,
			"count":144,
			"type":"VEC2"
		},
		{
			"bufferView":74,
			"componentType":5123,
			"count":480,
			"type":"SCALAR"
		},
		{
			"bufferView":75,
			"componentType":5126,
			"count":16,
			"max":[
				0.9572462439537048,
				0.40624839067459106,
				0.3482828140258789
			],
			"min":[
				-0.7411493062973022,
				-0.9503883123397827,
				-1.8497638702392578
			],
			"type":"VEC3"
		},
		{
			"bufferView":76,
			"componentType":5126,
			"count":16,
			"type":"VEC3"
		},
		{
			"bufferView":77,
			"componentType":5126,
			"count":16,
			"type":"VEC2"
		},
		{
			"bufferView":78,
			"componentType":5123,
			"count":24,
			"type":"SCALAR"
		},
		{
			"bufferView":79,
			"componentType":5126,
			"count":3924,
			"max":[
				-1.1879777908325195,
				1.3958241939544678,
				8.664679527282715
			],
			"min":[
				-4.828825950622559,
				-3.3197033405303955,
				2.9971072673797607
			],
			"type":"VEC3"
		},
		{
			"bufferView":80,
			"componentType":5126,
			"count":3924,
			"type":"VEC3"
		},
		{
			"bufferView":81,
			"componentType":5126,
			"count":3924,
			"type":"VEC2"
		},
		{
			"bufferView":82,
			"componentType":5126,
			"count":3924,
			"type":"VEC2"
		},
		{
			"bufferView":83,
			"componentType":5121,
			"count":3924,
			"normalized":true,
			"type":"VEC4"
		},
		{
			"bufferView":84,
			"componentType":5123,
			"count":3924,
			"normalized":true,
			"type":"VEC4"
		},
		{
			"bufferView":85,
			"componentType":5123,
			"count":13386,
			"type":"SCALAR"
		},
		{
			"bufferView":86,
			"componentType":5126,
			"count":3924,
			"max":[
				0.5122289657592773,
				0.8275043368339539,
				0.7192478179931641
			],
			"min":[
				-0.4329557418823242,
				-0.2978462874889374,
				-1.060744285583496
			],
			"type":"VEC3"
		},
		{
			"bufferView":87,
			"componentType":5126,
			"count":3924,
			"type":"VEC3"
		},
		{
			"componentType":5126,
			"count":3924,
			"max":[
				0.683671236038208,
				0.33998075127601624,
				0.4236130714416504
			],
			"min":[
				-0.26836681365966797,
				-0.541728138923645,
				-0.41052722930908203
			],
			"sparse":{
				"count":2844,
				"indices":{
					"bufferView":88,
					"componentType":5123
				},
				"values":{
					"bufferView":89
				}
			},
			"type":"VEC3"
		},
		{
			"bufferView":90,
			"componentType":5126,
			"count":3924,
			"type":"VEC3"
		},
		{
			"bufferView":91,
			"componentType":5126,
			"count":3600,
			"max":[
				4.5241899490356445,
				2.815852165222168,
				-6.1929426193237305
			],
			"min":[
				-4.1021037101745605,
				-2.10453200340271,
				-29.046613693237305
			],
			"type":"VEC3"
		},
		{
			"bufferView":92,
			"componentType":5126,
			"count":3600,
			"type":"VEC3"
		},
		{
			"bufferView":93,
			"componentType":5126,
			"count":3600,
			"type":"VEC2"
		},
		{
			"bufferView":94,
			"componentType":5126,
			"count":3600,
			"type":"VEC2"
		},
		{
			"bufferView":95,
			"componentType":5121,
			"count":3600,
			"normalized":true,
			"type":"VEC4"
		},
		{
			"bufferView":96,
			"componentType":5123,
			"count":3600,
			"normalized":true,
			"type":"VEC4"
		},
		{
			"bufferView":97,
			"componentType":5123,
			"count":11904,
			"type":"SCALAR"
		},
		{
			"componentType":5126,
			"count":3600,
			"max":[
				3.814697265625e-06,
				5.0067901611328125e-06,
				9.5367431640625e-06
			],
			"min":[
				-1.9073486328125e-06,
				-4.76837158203125e-07,
				-3.337860107421875e-06
			],
			"sparse":{
				"count":182,
				"indices":{
					"bufferView":98,
					"componentType":5123
				},
				"values":{
					"bufferView":99
				}
			},
			"type":"VEC3"
		},
		{
			"bufferView":100,
			"componentType":5126,
			"count":3600,
			"type":"VEC3"
		},
		{
			"componentType":5126,
			"count":3600,
			"max":[
				0,
				0,
				0
			],
			"min":[
				0,
				0,
				0
			],
			"sparse":{
				"count":1,
				"indices":{
					"bufferView":101,
					"componentType":5121
				},
				"values":{
					"bufferView":102
				}
			},
			"type":"VEC3"
		},
		{
			"bufferView":103,
			"componentType":5126,
			"count":3600,
			"type":"VEC3"
		},
		{
			"bufferView":104,
			"componentType":5126,
			"count":1292,
			"max":[
				4.243302822113037,
				2.548673629760742,
				4.374892711639404
			],
			"min":[
				-5.502389430999756,
				-2.9723477363586426,
				-10.156363487243652
			],
			"type":"VEC3"
		},
		{
			"bufferView":105,
			"componentType":5126,
			"count":1292,
			"type":"VEC3"
		},
		{
			"bufferView":106,
			"componentType":5126,
			"count":1292,
			"type":"VEC2"
		},
		{
			"bufferView":107,
			"componentType":5126,
			"count":1292,
			"type":"VEC2"
		},
		{
			"bufferView":108,
			"componentType":5121,
			"count":1292,
			"normalized":true,
			"type":"VEC4"
		},
		{
			"bufferView":109,
			"componentType":5123,
			"count":1292,
			"normalized":true,
			"type":"VEC4"
		},
		{
			"bufferView":110,
			"componentType":5123,
			"count":4722,
			"type":"SCALAR"
		},
		{
			"bufferView":111,
			"componentType":5126,
			"count":1292,
			"max":[
				0.5122289657592773,
				0.8275043368339539,
				0.7192478179931641
			],
			"min":[
				-0.4329557418823242,
				-0.2978462874889374,
				-0.8034133911132812
			],
			"type":"VEC3"
		},
		{
			"bufferView":112,
			"componentType":5126,
			"count":1292,
			"type":"VEC3"
		},
		{
			"componentType":5126,
			"count":1292,
			"max":[
				0.002926945686340332,
				0.000331878662109375,
				0.004009246826171875
			],
			"min":[
				0,
				-0.0031772255897521973,
				0
			],
			"sparse":{
				"count":22,
				"indices":{
					"bufferView":113,
					"componentType":5123
				},
				"values":{
					"bufferView":114
				}
			},
			"type":"VEC3"
		},
		{
			"bufferView":115,
			"componentType":5126,
			"count":1292,
			"type":"VEC3"
		},
		{
			"bufferView":116,
			"componentType":5126,
			"count":775,
			"max":[
				-2.1557769775390625,
				-0.17814360558986664,
				7.56268835067749
			],
			"min":[
				-4.156887054443359,
				-3.241586208343506,
				5.101618766784668
			],
			"type":"VEC3"
		},
		{
			"bufferView":117,
			"componentType":5126,
			"count":775,
			"type":"VEC3"
		},
		{
			"bufferView":118,
			"componentType":5126,
			"count":775,
			"type":"VEC2"
		},
		{
			"bufferView":119,
			"componentType":5126,
			"count":775,
			"type":"VEC2"
		},
		{
			"bufferView":120,
			"componentType":5121,
			"count":775,
			"normalized":true,
			"type":"VEC4"
		},
		{
			"bufferView":121,
			"componentType":5123,
			"count":775,
			"normalized":true,
			"type":"VEC4"
		},
		{
			"bufferView":122,
			"componentType":5123,
			"count":1956,
			"type":"SCALAR"
		},
		{
			"bufferView":123,
			"componentType":5126,
			"count":775,
			"max":[
				0.21760225296020508,
				0.07875555753707886,
				0.16266870498657227
			],
			"min":[
				-0.1459977626800537,
				-0.12152600288391113,
				-1.0581450462341309
			],
			"type":"VEC3"
		},
		{
			"bufferView":124,
			"componentType":5126,
			"count":775,
			"type":"VEC3"
		},
		{
			"bufferView":125,
			"componentType":5126,
			"count":775,
			"max":[
				0.18973922729492188,
				0.14793157577514648,
				0.21777772903442383
			],
			"min":[
				-0.1593914031982422,
				-0.17029714584350586,
				-0.20531463623046875
			],
			"type":"VEC3"
		},
		{
			"bufferView":126,
			"componentType":5126,
			"count":775,
			"type":"VEC3"
		},
		{
			"bufferView":127,
			"componentType":5126,
			"count":14597,
			"max":[
				19.473352432250977,
				17.401941299438477,
				7.3394694328308105
			],
			"min":[
				-4.313379764556885,
				1.1631518602371216,
				-18.812789916992188
			],
			"type":"VEC3"
		},
		{
			"bufferView":128,
			"componentType":5126,
			"count":14597,
			"type":"VEC3"
		},
		{
			"bufferView":129,
			"componentType":5126,
			"count":14597,
			"type":"VEC2"
		},
		{
			"bufferView":130,
			"componentType":5123,
			"count":80955,
			"type":"SCALAR"
		},
		{
			"bufferView":131,
			"componentType":5126,
			"count":1276,
			"max":[
				14.70115852355957,
				14.769850730895996,
				5.72899866104126
			],
			"min":[
				1.429077386856079,
				2.152212619781494,
				-7.5877532958984375
			],
			"type":"VEC3"
		},
		{
			"bufferView":132,
			"componentType":5126,
			"count":1276,
			"type":"VEC3"
		},
		{
			"bufferView":133,
			"componentType":5126,
			"count":1276,
			"type":"VEC2"
		},
		{
			"bufferView":134,
			"componentType":5123,
			"count":7104,
			"type":"SCALAR"
		},
		{
			"bufferView":135,
			"componentType":5126,
			"count":22148,
			"max":[
				12.294955253601074,
				17.28228759765625,
				8.036476135253906
			],
			"min":[
				-13.153569221496582,
				0.37232694029808044,
				-19.92920684814453
			],
			"type":"VEC3"
		},
		{
			"bufferView":136,
			"componentType":5126,
			"count":22148,
			"type":"VEC3"
		},
		{
			"bufferView":137,
			"componentType":5126,
			"count":22148,
			"type":"VEC2"
		},
		{
			"bufferView":138,
			"componentType":5123,
			"count":88059,
			"type":"SCALAR"
		},
		{
			"bufferView":139,
			"componentType":5126,
			"count":22148,
			"max":[
				12.294955253601074,
				17.28228759765625,
				8.036476135253906
			],
			"min":[
				-13.153569221496582,
				0.37232694029808044,
				-19.92920684814453
			],
			"type":"VEC3"
		},
		{
			"bufferView":140,
			"componentType":5126,
			"count":22148,
			"type":"VEC3"
		},
		{
			"bufferView":141,
			"componentType":5126,
			"count":22148,
			"type":"VEC2"
		},
		{
			"bufferView":142,
			"componentType":5123,
			"count":88059,
			"type":"SCALAR"
		},
		{
			"bufferView":143,
			"componentType":5126,
			"count":45754,
			"max":[
				0.13358727097511292,
				0.2683669626712799,
				0.6018341779708862
			],
			"min":[
				-0.23076508939266205,
				-0.1996680051088333,
				-0.08937758207321167
			],
			"type":"VEC3"
		},
		{
			"bufferView":144,
			"componentType":5126,
			"count":45754,
			"type":"VEC3"
		},
		{
			"bufferView":145,
			"componentType":5126,
			"count":45754,
			"type":"VEC2"
		},
		{
			"bufferView":146,
			"componentType":5126,
			"count":45754,
			"type":"VEC2"
		},
		{
			"bufferView":147,
			"componentType":5121,
			"count":45754,
			"normalized":true,
			"type":"VEC4"
		},
		{
			"bufferView":148,
			"componentType":5123,
			"count":45754,
			"normalized":true,
			"type":"VEC4"
		},
		{
			"bufferView":149,
			"componentType":5123,
			"count":152826,
			"type":"SCALAR"
		},
		{
			"bufferView":150,
			"componentType":5126,
			"count":7771,
			"max":[
				0.05285733938217163,
				0.07343977689743042,
				0.2569805085659027
			],
			"min":[
				-0.07621447741985321,
				-0.08726685494184494,
				0.0030894577503204346
			],
			"type":"VEC3"
		},
		{
			"bufferView":151,
			"componentType":5126,
			"count":7771,
			"type":"VEC3"
		},
		{
			"bufferView":152,
			"componentType":5126,
			"count":7771,
			"type":"VEC2"
		},
		{
			"bufferView":153,
			"componentType":5126,
			"count":7771,
			"type":"VEC2"
		},
		{
			"bufferView":154,
			"componentType":5121,
			"count":7771,
			"normalized":true,
			"type":"VEC4"
		},
		{
			"bufferView":155,
			"componentType":5123,
			"count":7771,
			"normalized":true,
			"type":"VEC4"
		},
		{
			"bufferView":156,
			"componentType":5123,
			"count":36684,
			"type":"SCALAR"
		}
	],
	"bufferViews":[
		{
			"buffer":0,
			"byteLength":498828,
			"byteOffset":0,
			"target":34962
		},
		{
			"buffer":0,
			"byteLength":498828,
			"byteOffset":498828,
			"target":34962
		},
		{
			"buffer":0,
			"byteLength":332552,
			"byteOffset":997656,
			"target":34962
		},
		{
			"buffer":0,
			"byteLength":332552,
			"byteOffset":1330208,
			"target":34962
		},
		{
			"buffer":0,
			"byteLength":166276,
			"byteOffset":1662760,
			"target":34962
		},
		{
			"buffer":0,
			"byteLength":332552,
			"byteOffset":1829036,
			"target":34962
		},
		{
			"buffer":0,
			"byteLength":373404,
			"byteOffset":2161588,
			"target":34963
		},
		{
			"buffer":0,
			"byteLength":339204,
			"byteOffset":2534992,
			"target":34962
		},
		{
			"buffer":0,
			"byteLength":339204,
			"byteOffset":2874196,
			"target":34962
		},
		{
			"buffer":0,
			"byteLength":226136,
			"byteOffset":3213400,
			"target":34962
		},
		{
			"buffer":0,
			"byteLength":226136,
			"byteOffset":3439536,
			"target":34962
		},
		{
			"buffer":0,
			"byteLength":113068,
			"byteOffset":3665672,
			"target":34962
		},
		{
			"buffer":0,
			"byteLength":226136,
			"byteOffset":3778740,
			"target":34962
		},
		{
			"buffer":0,
			"byteLength":195372,
			"byteOffset":4004876,
			"target":34963
		},
		{
			"buffer":0,
			"byteLength":65028,
			"byteOffset":4200248,
			"target":34962
		},
		{
			"buffer":0,
			"byteLength":65028,
			"byteOffset":4265276,
			"target":34962
		},
		{
			"buffer":0,
			"byteLength":43352,
			"byteOffset":4330304,
			"target":34962
		},
		{
			"buffer":0,
			"byteLength":43352,
			"byteOffset":4373656,
			"target":34962
		},
		{
			"buffer":0,
			"byteLength":21676,
			"byteOffset":4417008,
			"target":34962
		},
		{
			"buffer":0,
			"byteLength":43352,
			"byteOffset":4438684,
			"target":34962
		},
		{
			"buffer":0,
			"byteLength":19230,
			"byteOffset":4482036,
			"target":34963
		},
		{
			"buffer":0,
			"byteLength":2880,
			"byteOffset":4501268,
			"target":34962
		},
		{
			"buffer":0,
			"byteLength":2880,
			"byteOffset":4504148,
			"target":34962
		},
		{
			"buffer":0,
			"byteLength":1920,
			"byteOffset":4507028,
			"target":34962
		},
		{
			"buffer":0,
			"byteLength":672,
			"byteOffset":4508948,
			"target":34963
		},
		{
			"buffer":0,
			"byteLength":498828,
			"byteOffset":4509620,
			"target":34962
		},
		{
			"buffer":0,
			"byteLength":498828,
			"byteOffset":5008448,
			"target":34962
		},
		{
			"buffer":0,
			"byteLength":332552,
			"byteOffset":5507276,
			"target":34962
		},
		{
			"buffer":0,
			"byteLength":332552,
			"byteOffset":5839828,
			"target":34962
		},
		{
			"buffer":0,
			"byteLength":166276,
			"byteOffset":6172380,
			"target":34962
		},
		{
			"buffer":0,
			"byteLength":332552,
			"byteOffset":6338656,
			"target":34962
		},
		{
			"buffer":0,
			"byteLength":936,
			"byteOffset":6671208,
			"target":34962
		},
		{
			"buffer":0,
			"byteLength":936,
			"byteOffset":6672144,
			"target":34962
		},
		{
			"buffer":0,
			"byteLength":624,
			"byteOffset":6673080,
			"target":34962
		},
		{
			"buffer":0,
			"byteLength":504,
			"byteOffset":6673704,
			"target":34963
		},
		{
			"buffer":0,
			"byteLength":156,
			"byteOffset":6674208,
			"target":34962
		},
		{
			"buffer":0,
			"byteLength":156,
			"byteOffset":6674364,
			"target":34962
		},
		{
			"buffer":0,
			"byteLength":104,
			"byteOffset":6674520,
			"target":34962
		},
		{
			"buffer":0,
			"byteLength":84,
			"byteOffset":6674624,
			"target":34963
		},
		{
			"buffer":0,
			"byteLength":43488,
			"byteOffset":6674708,
			"target":34962
		},
		{
			"buffer":0,
			"byteLength":43488,
			"byteOffset":6718196,
			"target":34962
		},
		{
			"buffer":0,
			"byteLength":28992,
			"byteOffset":6761684,
			"target":34962
		},
		{
			"buffer":0,
			"byteLength":28992,
			"byteOffset":6790676,
			"target":34962
		},
		{
			"buffer":0,
			"byteLength":14496,
			"byteOffset":6819668,
			"target":34962
		},
		{
			"buffer":0,
			"byteLength":28992,
			"byteOffset":6834164,
			"target":34962
		},
		{
			"buffer":0,
			"byteLength":26772,
			"byteOffset":6863156,
			"target":34963
		},
		{
			"buffer":0,
			"byteLength":38580,
			"byteOffset":6889928,
			"target":34962
		},
		{
			"buffer":0,
			"byteLength":38580,
			"byteOffset":6928508,
			"target":34962
		},
		{
			"buffer":0,
			"byteLength":25720,
			"byteOffset":6967088,
			"target":34962
		},
		{
			"buffer":0,
			"byteLength":25720,
			"byteOffset":6992808,
			"target":34962
		},
		{
			"buffer":0,
			"byteLength":12860,
			"byteOffset":7018528,
			"target":34962
		},
		{
			"buffer":0,
			"byteLength":25720,
			"byteOffset":7031388,
			"target":34962
		},
		{
			"buffer":0,
			"byteLength":23808,
			"byteOffset":7057108,
			"target":34963
		},
		{
			"buffer":0,
			"byteLength":14580,
			"byteOffset":7080916,
			"target":34962
		},
		{
			"buffer":0,
			"byteLength":14580,
			"byteOffset":7095496,
			"target":34962
		},
		{
			"buffer":0,
			"byteLength":9720,
			"byteOffset":7110076,
			"target":34962
		},
		{
			"buffer":0,
			"byteLength":9720,
			"byteOffset":7119796,
			"target":34962
		},
		{
			"buffer":0,
			"byteLength":4860,
			"byteOffset":7129516,
			"target":34962
		},
		{
			"buffer":0,
			"byteLength":9720,
			"byteOffset":7134376,
			"target":34962
		},
		{
			"buffer":0,
			"byteLength":9444,
			"byteOffset":7144096,
			"target":34963
		},
		{
			"buffer":0,
			"byteLength":8820,
			"byteOffset":7153540,
			"target":34962
		},
		{
			"buffer":0,
			"byteLength":8820,
			"byteOffset":7162360,
			"target":34962
		},
		{
			"buffer":0,
			"byteLength":5880,
			"byteOffset":7171180,
			"target":34962
		},
		{
			"buffer":0,
			"byteLength":5880,
			"byteOffset":7177060,
			"target":34962
		},
		{
			"buffer":0,
			"byteLength":2940,
			"byteOffset":7182940,
			"target":34962
		},
		{
			"buffer":0,
			"byteLength":5880,
			"byteOffset":7185880,
			"target":34962
		},
		{
			"buffer":0,
			"byteLength":3912,
			"byteOffset":7191760,
			"target":34963
		},
		{
			"buffer":0,
			"byteLength":1760196,
			"byteOffset":7195672,
			"target":34962
		},
		{
			"buffer":0,
			"byteLength":1760196,
			"byteOffset":8955868,
			"target":34962
		},
		{
			"buffer":0,
			"byteLength":1173464,
			"byteOffset":10716064,
			"target":34962
		},
		{
			"buffer":0,
			"byteLength":880224,
			"byteOffset":11889528,
			"target":34963
		},
		{
			"buffer":0,
			"byteLength":1728,
			"byteOffset":12769752,
			"target":34962
		},
		{
			"buffer":0,
			"byteLength":1728,
			"byteOffset":12771480,
			"target":34962
		},
		{
			"buffer":0,
			"byteLength":1152,
			"byteOffset":12773208,
			"target":34962
		},
		{
			"buffer":0,
			"byteLength":960,
			"byteOffset":12774360,
			"target":34963
		},
		{
			"buffer":0,
			"byteLength":192,
			"byteOffset":12775320,
			"target":34962
		},
		{
			"buffer":0,
			"byteLength":192,
			"byteOffset":12775512,
			"target":34962
		},
		{
			"buffer":0,
			"byteLength":128,
			"byteOffset":12775704,
			"target":34962
		},
		{
			"buffer":0,
			"byteLength":48,
			"byteOffset":12775832,
			"target":34963
		},
		{
			"buffer":0,
			"byteLength":47088,
			"byteOffset":12775880,
			"target":34962
		},
		{
			"buffer":0,
			"byteLength":47088,
			"byteOffset":12822968,
			"target":34962
		},
		{
			"buffer":0,
			"byteLength":31392,
			"byteOffset":12870056,
			"target":34962
		},
		{
			"buffer":0,
			"byteLength":31392,
			"byteOffset":12901448,
			"target":34962
		},
		{
			"buffer":0,
			"byteLength":15696,
			"byteOffset":12932840,
			"target":34962
		},
		{
			"buffer":0,
			"byteLength":31392,
			"byteOffset":12948536,
			"target":34962
		},
		{
			"buffer":0,
			"byteLength":26772,
			"byteOffset":12979928,
			"target":34963
		},
		{
			"buffer":0,
			"byteLength":47088,
			"byteOffset":13006700,
			"target":34962
		},
		{
			"buffer":0,
			"byteLength":47088,
			"byteOffset":13053788,
			"target":34962
		},
		{
			"buffer":0,
			"byteLength":5688,
			"byteOffset":13100876
		},
		{
			"buffer":0,
			"byteLength":34128,
			"byteOffset":13106564
		},
		{
			"buffer":0,
			"byteLength":47088,
			"byteOffset":13140692,
			"target":34962
		},
		{
			"buffer":0,
			"byteLength":43200,
			"byteOffset":13187780,
			"target":34962
		},
		{
			"buffer":0,
			"byteLength":43200,
			"byteOffset":13230980,
			"target":34962
		},
		{
			"buffer":0,
			"byteLength":28800,
			"byteOffset":13274180,
			"target":34962
		},
		{
			"buffer":0,
			"byteLength":28800,
			"byteOffset":13302980,
			"target":34962
		},
		{
			"buffer":0,
			"byteLength":14400,
			"byteOffset":13331780,
			"target":34962
		},
		{
			"buffer":0,
			"byteLength":28800,
			"byteOffset":13346180,
			"target":34962
		},
		{
			"buffer":0,
			"byteLength":23808,
			"byteOffset":13374980,
			"target":34963
		},
		{
			"buffer":0,
			"byteLength":364,
			"byteOffset":13398788
		},
		{
			"buffer":0,
			"byteLength":2184,
			"byteOffset":13399152
		},
		{
			"buffer":0,
			"byteLength":43200,
			"byteOffset":13401336,
			"target":34962
		},
		{
			"buffer":0,
			"byteLength":1,
			"byteOffset":13444536
		},
		{
			"buffer":0,
			"byteLength":12,
			"byteOffset":13444540
		},
		{
			"buffer":0,
			"byteLength":43200,
			"byteOffset":13444552,
			"target":34962
		},
		{
			"buffer":0,
			"byteLength":15504,
			"byteOffset":13487752,
			"target":34962
		},
		{
			"buffer":0,
			"byteLength":15504,
			"byteOffset":13503256,
			"target":34962
		},
		{
			"buffer":0,
			"byteLength":10336,
			"byteOffset":13518760,
			"target":34962
		},
		{
			"buffer":0,
			"byteLength":10336,
			"byteOffset":13529096,
			"target":34962
		},
		{
			"buffer":0,
			"byteLength":5168,
			"byteOffset":13539432,
			"target":34962
		},
		{
			"buffer":0,
			"byteLength":10336,
			"byteOffset":13544600,
			"target":34962
		},
		{
			"buffer":0,
			"byteLength":9444,
			"byteOffset":13554936,
			"target":34963
		},
		{
			"buffer":0,
			"byteLength":15504,
			"byteOffset":13564380,
			"target":34962
		},
		{
			"buffer":0,
			"byteLength":15504,
			"byteOffset":13579884,
			"target":34962
		},
		{
			"buffer":0,
			"byteLength":44,
			"byteOffset":13595388
		},
		{
			"buffer":0,
			"byteLength":264,
			"byteOffset":13595432
		},
		{
			"buffer":0,
			"byteLength":15504,
			"byteOffset":13595696,
			"target":34962
		},
		{
			"buffer":0,
			"byteLength":9300,
			"byteOffset":13611200,
			"target":34962
		},
		{
			"buffer":0,
			"byteLength":9300,
			"byteOffset":13620500,
			"target":34962
		},
		{
			"buffer":0,
			"byteLength":6200,
			"byteOffset":13629800,
			"target":34962
		},
		{
			"buffer":0,
			"byteLength":6200,
			"byteOffset":13636000,
			"target":34962
		},
		{
			"buffer":0,
			"byteLength":3100,
			"byteOffset":13642200,
			"target":34962
		},
		{
			"buffer":0,
			"byteLength":6200,
			"byteOffset":13645300,
			"target":34962
		},
		{
			"buffer":0,
			"byteLength":3912,
			"byteOffset":13651500,
			"target":34963
		},
		{
			"buffer":0,
			"byteLength":9300,
			"byteOffset":13655412,
			"target":34962
		},
		{
			"buffer":0,
			"byteLength":9300,
			"byteOffset":13664712,
			"target":34962
		},
		{
			"buffer":0,
			"byteLength":9300,
			"byteOffset":13674012,
			"target":34962
		},
		{
			"buffer":0,
			"byteLength":9300,
			"byteOffset":13683312,
			"target":34962
		},
		{
			"buffer":0,
			"byteLength":175164,
			"byteOffset":13692612,
			"target":34962
		},
		{
			"buffer":0,
			"byteLength":175164,
			"byteOffset":13867776,
			"target":34962
		},
		{
			"buffer":0,
			"byteLength":116776,
			"byteOffset":14042940,
			"target":34962
		},
		{
			"buffer":0,
			"byteLength":161910,
			"byteOffset":14159716,
			"target":34963
		},
		{
			"buffer":0,
			"byteLength":15312,
			"byteOffset":14321628,
			"target":34962
		},
		{
			"buffer":0,
			"byteLength":15312,
			"byteOffset":14336940,
			"target":34962
		},
		{
			"buffer":0,
			"byteLength":10208,
			"byteOffset":14352252,
			"target":34962
		},
		{
			"buffer":0,
			"byteLength":14208,
			"byteOffset":14362460,
			"target":34963
		},
		{
			"buffer":0,
			"byteLength":265776,
			"byteOffset":14376668,
			"target":34962
		},
		{
			"buffer":0,
			"byteLength":265776,
			"byteOffset":14642444,
			"target":34962
		},
		{
			"buffer":0,
			"byteLength":177184,
			"byteOffset":14908220,
			"target":34962
		},
		{
			"buffer":0,
			"byteLength":176118,
			"byteOffset":15085404,
			"target":34963
		},
		{
			"buffer":0,
			"byteLength":265776,
			"byteOffset":15261524,
			"target":34962
		},
		{
			"buffer":0,
			"byteLength":265776,
			"byteOffset":15527300,
			"target":34962
		},
		{
			"buffer":0,
			"byteLength":177184,
			"byteOffset":15793076,
			"target":34962
		},
		{
			"buffer":0,
			"byteLength":176118,
			"byteOffset":15970260,
			"target":34963
		},
		{
			"buffer":0,
			"byteLength":549048,
			"byteOffset":16146380,
			"target":34962
		},
		{
			"buffer":0,
			"byteLength":549048,
			"byteOffset":16695428,
			"target":34962
		},
		{
			"buffer":0,
			"byteLength":366032,
			"byteOffset":17244476,
			"target":34962
		},
		{
			"buffer":0,
			"byteLength":366032,
			"byteOffset":17610508,
			"target":34962
		},
		{
			"buffer":0,
			"byteLength":183016,
			"byteOffset":17976540,
			"target":34962
		},
		{
			"buffer":0,
			"byteLength":366032,
			"byteOffset":18159556,
			"target":34962
		},
		{
			"buffer":0,
			"byteLength":305652,
			"byteOffset":18525588,
			"target":34963
		},
		{
			"buffer":0,
			"byteLength":93252,
			"byteOffset":18831240,
			"target":34962
		},
		{
			"buffer":0,
			"byteLength":93252,
			"byteOffset":18924492,
			"target":34962
		},
		{
			"buffer":0,
			"byteLength":62168,
			"byteOffset":19017744,
			"target":34962
		},
		{
			"buffer":0,
			"byteLength":62168,
			"byteOffset":19079912,
			"target":34962
		},
		{
			"buffer":0,
			"byteLength":31084,
			"byteOffset":19142080,
			"target":34962
		},
		{
			"buffer":0,
			"byteLength":62168,
			"byteOffset":19173164,
			"target":34962
		},
		{
			"buffer":0,
			"byteLength":73368,
			"byteOffset":19235332,
			"target":34963
		}
	],
	"samplers":[
		{
			"magFilter":9729,
			"minFilter":9987
		}
	],
	"buffers":[
		{
			"byteLength":19308700,
			"uri":"grassss_12_.bin"
		}
	]
}
