# Blender 5.0.0
# www.blender.org
o Plane.001
v -84.012680 -10.756029 66.424210
v -83.577942 -6.872936 66.622025
v -81.440567 -2.280962 65.632416
v -84.270905 -1.637510 66.753815
v -91.734299 -0.272617 62.542931
v -82.073296 -11.431763 65.589996
v -81.933945 -0.938875 66.657181
v -87.911377 1.508081 65.322464
v -87.000298 1.207548 63.868458
v -87.176590 1.334335 64.688782
v -81.638557 -7.548670 65.787811
v -83.577942 -6.872936 66.622025
v -81.680527 -7.572165 66.649063
v -82.115257 -11.455258 66.451248
vn 0.0025 0.0250 -0.9997
vn 0.0127 0.0328 -0.9994
vn 0.0317 0.0473 -0.9984
vn -0.0796 -0.6201 -0.7805
vn -0.5350 -0.7448 0.3988
vn -0.9860 0.0534 -0.1577
vn -0.9858 0.0525 -0.1593
vn -0.9925 0.1134 -0.0453
vn 0.1835 -0.9332 0.3091
vn 0.2414 -0.9499 0.1987
vn 0.1891 -0.9354 0.2988
vn 0.1311 -0.9068 0.4006
vn -0.9634 -0.0078 -0.2680
vn -0.0164 0.0105 -0.9998
vt 1.000000 1.000000
vt 0.750000 0.500000
vt 0.250000 0.500000
vt 0.500000 0.500000
vt 0.715279 1.000000
vt 0.250000 1.000000
vt 0.250000 0.000000
vt 0.500000 0.000000
vt 0.750000 0.000000
vt 0.000000 0.500000
s 1
f 12/1/1 13/2/2 14/2/3 1/1/3
f 10/3/4 7/4/4 4/5/4 8/6/4
f 9/7/5 3/8/5 7/4/5 10/3/5
f 13/2/6 11/9/7 6/9/8 14/2/8
f 5/10/9 9/7/10 10/3/11
f 5/10/9 10/3/11 8/6/12
f 3/8/13 11/9/7 13/2/6 7/4/13
f 7/4/14 13/2/2 12/1/1 4/5/14
l 2 12
